<mxfile host="app.diagrams.net" modified="2021-08-13T18:41:11.359Z" agent="5.0 (Windows NT 10.0; Win64; x64) AppleWebKit/537.36 (KHTML, like Gecko) Chrome/92.0.4515.131 Safari/537.36" etag="8emRmmwSQhmX11a_5F-8" version="14.9.6" type="github">
  <diagram id="9Lovse9u0hvmHdRQPO8t" name="Page-1">
    <mxGraphModel dx="1422" dy="794" grid="1" gridSize="10" guides="1" tooltips="1" connect="1" arrows="1" fold="1" page="1" pageScale="1" pageWidth="827" pageHeight="1169" math="0" shadow="0">
      <root>
        <mxCell id="0" />
        <mxCell id="1" parent="0" />
        <mxCell id="Iy4B4WJV5mHsffkdvs_b-1" value="tasks" style="shape=table;startSize=30;container=1;collapsible=1;childLayout=tableLayout;fixedRows=1;rowLines=0;fontStyle=1;align=center;resizeLast=1;" vertex="1" parent="1">
          <mxGeometry x="414" y="275" width="180" height="265" as="geometry" />
        </mxCell>
        <mxCell id="Iy4B4WJV5mHsffkdvs_b-2" value="" style="shape=partialRectangle;collapsible=0;dropTarget=0;pointerEvents=0;fillColor=none;top=0;left=0;bottom=1;right=0;points=[[0,0.5],[1,0.5]];portConstraint=eastwest;" vertex="1" parent="Iy4B4WJV5mHsffkdvs_b-1">
          <mxGeometry y="30" width="180" height="30" as="geometry" />
        </mxCell>
        <mxCell id="Iy4B4WJV5mHsffkdvs_b-3" value="PK" style="shape=partialRectangle;connectable=0;fillColor=none;top=0;left=0;bottom=0;right=0;fontStyle=1;overflow=hidden;" vertex="1" parent="Iy4B4WJV5mHsffkdvs_b-2">
          <mxGeometry width="30" height="30" as="geometry" />
        </mxCell>
        <mxCell id="Iy4B4WJV5mHsffkdvs_b-4" value="UniqueID" style="shape=partialRectangle;connectable=0;fillColor=none;top=0;left=0;bottom=0;right=0;align=left;spacingLeft=6;fontStyle=5;overflow=hidden;" vertex="1" parent="Iy4B4WJV5mHsffkdvs_b-2">
          <mxGeometry x="30" width="150" height="30" as="geometry" />
        </mxCell>
        <mxCell id="Iy4B4WJV5mHsffkdvs_b-5" value="" style="shape=partialRectangle;collapsible=0;dropTarget=0;pointerEvents=0;fillColor=none;top=0;left=0;bottom=0;right=0;points=[[0,0.5],[1,0.5]];portConstraint=eastwest;" vertex="1" parent="Iy4B4WJV5mHsffkdvs_b-1">
          <mxGeometry y="60" width="180" height="30" as="geometry" />
        </mxCell>
        <mxCell id="Iy4B4WJV5mHsffkdvs_b-6" value="" style="shape=partialRectangle;connectable=0;fillColor=none;top=0;left=0;bottom=0;right=0;editable=1;overflow=hidden;" vertex="1" parent="Iy4B4WJV5mHsffkdvs_b-5">
          <mxGeometry width="30" height="30" as="geometry" />
        </mxCell>
        <mxCell id="Iy4B4WJV5mHsffkdvs_b-7" value="head   " style="shape=partialRectangle;connectable=0;fillColor=none;top=0;left=0;bottom=0;right=0;align=left;spacingLeft=6;overflow=hidden;" vertex="1" parent="Iy4B4WJV5mHsffkdvs_b-5">
          <mxGeometry x="30" width="150" height="30" as="geometry" />
        </mxCell>
        <mxCell id="Iy4B4WJV5mHsffkdvs_b-8" value="" style="shape=partialRectangle;collapsible=0;dropTarget=0;pointerEvents=0;fillColor=none;top=0;left=0;bottom=0;right=0;points=[[0,0.5],[1,0.5]];portConstraint=eastwest;" vertex="1" parent="Iy4B4WJV5mHsffkdvs_b-1">
          <mxGeometry y="90" width="180" height="30" as="geometry" />
        </mxCell>
        <mxCell id="Iy4B4WJV5mHsffkdvs_b-9" value="" style="shape=partialRectangle;connectable=0;fillColor=none;top=0;left=0;bottom=0;right=0;editable=1;overflow=hidden;" vertex="1" parent="Iy4B4WJV5mHsffkdvs_b-8">
          <mxGeometry width="30" height="30" as="geometry" />
        </mxCell>
        <mxCell id="Iy4B4WJV5mHsffkdvs_b-10" value="desc" style="shape=partialRectangle;connectable=0;fillColor=none;top=0;left=0;bottom=0;right=0;align=left;spacingLeft=6;overflow=hidden;" vertex="1" parent="Iy4B4WJV5mHsffkdvs_b-8">
          <mxGeometry x="30" width="150" height="30" as="geometry" />
        </mxCell>
        <mxCell id="Iy4B4WJV5mHsffkdvs_b-11" value="" style="shape=partialRectangle;collapsible=0;dropTarget=0;pointerEvents=0;fillColor=none;top=0;left=0;bottom=0;right=0;points=[[0,0.5],[1,0.5]];portConstraint=eastwest;" vertex="1" parent="Iy4B4WJV5mHsffkdvs_b-1">
          <mxGeometry y="120" width="180" height="30" as="geometry" />
        </mxCell>
        <mxCell id="Iy4B4WJV5mHsffkdvs_b-12" value="" style="shape=partialRectangle;connectable=0;fillColor=none;top=0;left=0;bottom=0;right=0;editable=1;overflow=hidden;" vertex="1" parent="Iy4B4WJV5mHsffkdvs_b-11">
          <mxGeometry width="30" height="30" as="geometry" />
        </mxCell>
        <mxCell id="Iy4B4WJV5mHsffkdvs_b-13" value="dates" style="shape=partialRectangle;connectable=0;fillColor=none;top=0;left=0;bottom=0;right=0;align=left;spacingLeft=6;overflow=hidden;" vertex="1" parent="Iy4B4WJV5mHsffkdvs_b-11">
          <mxGeometry x="30" width="150" height="30" as="geometry" />
        </mxCell>
        <mxCell id="Iy4B4WJV5mHsffkdvs_b-14" value="user" style="shape=table;startSize=30;container=1;collapsible=1;childLayout=tableLayout;fixedRows=1;rowLines=0;fontStyle=1;align=center;resizeLast=1;" vertex="1" parent="1">
          <mxGeometry x="90" y="270" width="180" height="190" as="geometry" />
        </mxCell>
        <mxCell id="Iy4B4WJV5mHsffkdvs_b-15" value="" style="shape=partialRectangle;collapsible=0;dropTarget=0;pointerEvents=0;fillColor=none;top=0;left=0;bottom=1;right=0;points=[[0,0.5],[1,0.5]];portConstraint=eastwest;" vertex="1" parent="Iy4B4WJV5mHsffkdvs_b-14">
          <mxGeometry y="30" width="180" height="30" as="geometry" />
        </mxCell>
        <mxCell id="Iy4B4WJV5mHsffkdvs_b-16" value="PK" style="shape=partialRectangle;connectable=0;fillColor=none;top=0;left=0;bottom=0;right=0;fontStyle=1;overflow=hidden;" vertex="1" parent="Iy4B4WJV5mHsffkdvs_b-15">
          <mxGeometry width="30" height="30" as="geometry" />
        </mxCell>
        <mxCell id="Iy4B4WJV5mHsffkdvs_b-17" value="UniqueID" style="shape=partialRectangle;connectable=0;fillColor=none;top=0;left=0;bottom=0;right=0;align=left;spacingLeft=6;fontStyle=5;overflow=hidden;" vertex="1" parent="Iy4B4WJV5mHsffkdvs_b-15">
          <mxGeometry x="30" width="150" height="30" as="geometry" />
        </mxCell>
        <mxCell id="Iy4B4WJV5mHsffkdvs_b-18" value="" style="shape=partialRectangle;collapsible=0;dropTarget=0;pointerEvents=0;fillColor=none;top=0;left=0;bottom=0;right=0;points=[[0,0.5],[1,0.5]];portConstraint=eastwest;" vertex="1" parent="Iy4B4WJV5mHsffkdvs_b-14">
          <mxGeometry y="60" width="180" height="30" as="geometry" />
        </mxCell>
        <mxCell id="Iy4B4WJV5mHsffkdvs_b-19" value="" style="shape=partialRectangle;connectable=0;fillColor=none;top=0;left=0;bottom=0;right=0;editable=1;overflow=hidden;" vertex="1" parent="Iy4B4WJV5mHsffkdvs_b-18">
          <mxGeometry width="30" height="30" as="geometry" />
        </mxCell>
        <mxCell id="Iy4B4WJV5mHsffkdvs_b-20" value="name, lastname etc." style="shape=partialRectangle;connectable=0;fillColor=none;top=0;left=0;bottom=0;right=0;align=left;spacingLeft=6;overflow=hidden;" vertex="1" parent="Iy4B4WJV5mHsffkdvs_b-18">
          <mxGeometry x="30" width="150" height="30" as="geometry" />
        </mxCell>
        <mxCell id="Iy4B4WJV5mHsffkdvs_b-21" value="" style="shape=partialRectangle;collapsible=0;dropTarget=0;pointerEvents=0;fillColor=none;top=0;left=0;bottom=0;right=0;points=[[0,0.5],[1,0.5]];portConstraint=eastwest;" vertex="1" parent="Iy4B4WJV5mHsffkdvs_b-14">
          <mxGeometry y="90" width="180" height="30" as="geometry" />
        </mxCell>
        <mxCell id="Iy4B4WJV5mHsffkdvs_b-22" value="" style="shape=partialRectangle;connectable=0;fillColor=none;top=0;left=0;bottom=0;right=0;editable=1;overflow=hidden;" vertex="1" parent="Iy4B4WJV5mHsffkdvs_b-21">
          <mxGeometry width="30" height="30" as="geometry" />
        </mxCell>
        <mxCell id="Iy4B4WJV5mHsffkdvs_b-23" value="login" style="shape=partialRectangle;connectable=0;fillColor=none;top=0;left=0;bottom=0;right=0;align=left;spacingLeft=6;overflow=hidden;" vertex="1" parent="Iy4B4WJV5mHsffkdvs_b-21">
          <mxGeometry x="30" width="150" height="30" as="geometry" />
        </mxCell>
        <mxCell id="Iy4B4WJV5mHsffkdvs_b-24" value="" style="shape=partialRectangle;collapsible=0;dropTarget=0;pointerEvents=0;fillColor=none;top=0;left=0;bottom=0;right=0;points=[[0,0.5],[1,0.5]];portConstraint=eastwest;" vertex="1" parent="Iy4B4WJV5mHsffkdvs_b-14">
          <mxGeometry y="120" width="180" height="30" as="geometry" />
        </mxCell>
        <mxCell id="Iy4B4WJV5mHsffkdvs_b-25" value="" style="shape=partialRectangle;connectable=0;fillColor=none;top=0;left=0;bottom=0;right=0;editable=1;overflow=hidden;" vertex="1" parent="Iy4B4WJV5mHsffkdvs_b-24">
          <mxGeometry width="30" height="30" as="geometry" />
        </mxCell>
        <mxCell id="Iy4B4WJV5mHsffkdvs_b-26" value="password" style="shape=partialRectangle;connectable=0;fillColor=none;top=0;left=0;bottom=0;right=0;align=left;spacingLeft=6;overflow=hidden;" vertex="1" parent="Iy4B4WJV5mHsffkdvs_b-24">
          <mxGeometry x="30" width="150" height="30" as="geometry" />
        </mxCell>
        <mxCell id="Iy4B4WJV5mHsffkdvs_b-28" value="employer" style="shape=partialRectangle;connectable=0;fillColor=none;top=0;left=0;bottom=0;right=0;align=left;spacingLeft=6;overflow=hidden;" vertex="1" parent="1">
          <mxGeometry x="120" y="420" width="150" height="30" as="geometry" />
        </mxCell>
        <mxCell id="Iy4B4WJV5mHsffkdvs_b-29" value="prior" style="shape=partialRectangle;connectable=0;fillColor=none;top=0;left=0;bottom=0;right=0;align=left;spacingLeft=6;overflow=hidden;" vertex="1" parent="1">
          <mxGeometry x="444" y="420" width="150" height="30" as="geometry" />
        </mxCell>
        <mxCell id="Iy4B4WJV5mHsffkdvs_b-30" value="creator" style="shape=partialRectangle;connectable=0;fillColor=none;top=0;left=0;bottom=0;right=0;align=left;spacingLeft=6;overflow=hidden;" vertex="1" parent="1">
          <mxGeometry x="444" y="480" width="150" height="30" as="geometry" />
        </mxCell>
        <mxCell id="Iy4B4WJV5mHsffkdvs_b-31" value="status" style="shape=partialRectangle;connectable=0;fillColor=none;top=0;left=0;bottom=0;right=0;align=left;spacingLeft=6;overflow=hidden;" vertex="1" parent="1">
          <mxGeometry x="444" y="450" width="150" height="30" as="geometry" />
        </mxCell>
        <mxCell id="Iy4B4WJV5mHsffkdvs_b-32" value="responsible" style="shape=partialRectangle;connectable=0;fillColor=none;top=0;left=0;bottom=0;right=0;align=left;spacingLeft=6;overflow=hidden;" vertex="1" parent="1">
          <mxGeometry x="444" y="510" width="150" height="30" as="geometry" />
        </mxCell>
        <mxCell id="Iy4B4WJV5mHsffkdvs_b-34" value="" style="edgeStyle=entityRelationEdgeStyle;fontSize=12;html=1;endArrow=ERoneToMany;exitX=1;exitY=0.5;exitDx=0;exitDy=0;entryX=-0.011;entryY=0.733;entryDx=0;entryDy=0;entryPerimeter=0;" edge="1" parent="1" source="Iy4B4WJV5mHsffkdvs_b-21" target="Iy4B4WJV5mHsffkdvs_b-11">
          <mxGeometry width="100" height="100" relative="1" as="geometry">
            <mxPoint x="290" y="450" as="sourcePoint" />
            <mxPoint x="390" y="350" as="targetPoint" />
          </mxGeometry>
        </mxCell>
        <mxCell id="Iy4B4WJV5mHsffkdvs_b-35" value="user_tasks" style="shape=table;startSize=30;container=1;collapsible=1;childLayout=tableLayout;fixedRows=1;rowLines=0;fontStyle=1;align=center;resizeLast=1;" vertex="1" parent="1">
          <mxGeometry x="130" y="560" width="180" height="120" as="geometry" />
        </mxCell>
        <mxCell id="Iy4B4WJV5mHsffkdvs_b-36" value="" style="shape=partialRectangle;collapsible=0;dropTarget=0;pointerEvents=0;fillColor=none;top=0;left=0;bottom=1;right=0;points=[[0,0.5],[1,0.5]];portConstraint=eastwest;" vertex="1" parent="Iy4B4WJV5mHsffkdvs_b-35">
          <mxGeometry y="30" width="180" height="30" as="geometry" />
        </mxCell>
        <mxCell id="Iy4B4WJV5mHsffkdvs_b-37" value="PK" style="shape=partialRectangle;connectable=0;fillColor=none;top=0;left=0;bottom=0;right=0;fontStyle=1;overflow=hidden;" vertex="1" parent="Iy4B4WJV5mHsffkdvs_b-36">
          <mxGeometry width="30" height="30" as="geometry" />
        </mxCell>
        <mxCell id="Iy4B4WJV5mHsffkdvs_b-38" value="UniqueID" style="shape=partialRectangle;connectable=0;fillColor=none;top=0;left=0;bottom=0;right=0;align=left;spacingLeft=6;fontStyle=5;overflow=hidden;" vertex="1" parent="Iy4B4WJV5mHsffkdvs_b-36">
          <mxGeometry x="30" width="150" height="30" as="geometry" />
        </mxCell>
        <mxCell id="Iy4B4WJV5mHsffkdvs_b-39" value="" style="shape=partialRectangle;collapsible=0;dropTarget=0;pointerEvents=0;fillColor=none;top=0;left=0;bottom=0;right=0;points=[[0,0.5],[1,0.5]];portConstraint=eastwest;" vertex="1" parent="Iy4B4WJV5mHsffkdvs_b-35">
          <mxGeometry y="60" width="180" height="30" as="geometry" />
        </mxCell>
        <mxCell id="Iy4B4WJV5mHsffkdvs_b-40" value="" style="shape=partialRectangle;connectable=0;fillColor=none;top=0;left=0;bottom=0;right=0;editable=1;overflow=hidden;" vertex="1" parent="Iy4B4WJV5mHsffkdvs_b-39">
          <mxGeometry width="30" height="30" as="geometry" />
        </mxCell>
        <mxCell id="Iy4B4WJV5mHsffkdvs_b-41" value="id_task" style="shape=partialRectangle;connectable=0;fillColor=none;top=0;left=0;bottom=0;right=0;align=left;spacingLeft=6;overflow=hidden;" vertex="1" parent="Iy4B4WJV5mHsffkdvs_b-39">
          <mxGeometry x="30" width="150" height="30" as="geometry" />
        </mxCell>
        <mxCell id="Iy4B4WJV5mHsffkdvs_b-42" value="" style="shape=partialRectangle;collapsible=0;dropTarget=0;pointerEvents=0;fillColor=none;top=0;left=0;bottom=0;right=0;points=[[0,0.5],[1,0.5]];portConstraint=eastwest;" vertex="1" parent="Iy4B4WJV5mHsffkdvs_b-35">
          <mxGeometry y="90" width="180" height="30" as="geometry" />
        </mxCell>
        <mxCell id="Iy4B4WJV5mHsffkdvs_b-43" value="" style="shape=partialRectangle;connectable=0;fillColor=none;top=0;left=0;bottom=0;right=0;editable=1;overflow=hidden;" vertex="1" parent="Iy4B4WJV5mHsffkdvs_b-42">
          <mxGeometry width="30" height="30" as="geometry" />
        </mxCell>
        <mxCell id="Iy4B4WJV5mHsffkdvs_b-44" value="user_id" style="shape=partialRectangle;connectable=0;fillColor=none;top=0;left=0;bottom=0;right=0;align=left;spacingLeft=6;overflow=hidden;" vertex="1" parent="Iy4B4WJV5mHsffkdvs_b-42">
          <mxGeometry x="30" width="150" height="30" as="geometry" />
        </mxCell>
        <mxCell id="Iy4B4WJV5mHsffkdvs_b-48" value="" style="edgeStyle=entityRelationEdgeStyle;fontSize=12;html=1;endArrow=ERmandOne;startArrow=ERmandOne;exitX=0.467;exitY=-0.017;exitDx=0;exitDy=0;exitPerimeter=0;" edge="1" parent="1" source="Iy4B4WJV5mHsffkdvs_b-35">
          <mxGeometry width="100" height="100" relative="1" as="geometry">
            <mxPoint x="260" y="510" as="sourcePoint" />
            <mxPoint x="200" y="460" as="targetPoint" />
          </mxGeometry>
        </mxCell>
      </root>
    </mxGraphModel>
  </diagram>
</mxfile>
